<svg xmlns="http://www.w3.org/2000/svg" width="37.01" height="32.838" viewBox="0 0 37.01 32.838">
  <g id="그룹_297" data-name="그룹 297" transform="translate(0 0.809)">
    <path id="빼기_1" data-name="빼기 1" d="M17.5,30H10.327V20.749h2.285v-3.06h-2.3l.013-1.794a1.145,1.145,0,0,1,.212-.818,1.369,1.369,0,0,1,.93-.263,4.936,4.936,0,0,1,1.29.224V12.273a7.524,7.524,0,0,0-2.54-.519,3.746,3.746,0,0,0-2.415.7,2.776,2.776,0,0,0-1,1.888c-.053.347-.084,1.475-.092,3.351H5.424v3.06h1.29V30H0V0L7.5,3.751V0l10,5V30Z" transform="translate(19.01)" fill="#f39638" stroke="rgba(0,0,0,0)" stroke-miterlimit="10" stroke-width="1"/>
    <path id="패스_224" data-name="패스 224" d="M0,29.737H3.612v1.655A6.156,6.156,0,0,1,5.666,29.87a5.983,5.983,0,0,1,2.462-.5,4.571,4.571,0,0,1,2.429.661A4.786,4.786,0,0,1,12.3,31.96a5.826,5.826,0,0,1,2.106-1.931,5.734,5.734,0,0,1,2.727-.661,5.052,5.052,0,0,1,2.694.712,4.113,4.113,0,0,1,1.67,1.858,9.93,9.93,0,0,1,.508,3.73v8.408H18.393V36.809a6.175,6.175,0,0,0-.611-3.3,2.1,2.1,0,0,0-1.834-.862,2.8,2.8,0,0,0-1.667.527,3.117,3.117,0,0,0-1.1,1.454,8.97,8.97,0,0,0-.359,2.981v6.464H9.215V37.138a9.757,9.757,0,0,0-.284-2.784,2.521,2.521,0,0,0-.853-1.283A2.243,2.243,0,0,0,6.7,32.648a2.711,2.711,0,0,0-1.632.534,3.172,3.172,0,0,0-1.1,1.494A9.223,9.223,0,0,0,3.612,37.7v6.371H0Z" transform="translate(0 -12.047)" fill="#006a6f"/>
    <rect id="사각형_150" data-name="사각형 150" width="36.509" height="32.029" transform="translate(0 0)" fill="none"/>
  </g>
</svg>
